<svg width="60" height="60" viewBox="0 0 60 60" fill="none" xmlns="http://www.w3.org/2000/svg">
<path d="M52.5 30C51.837 30 51.2011 30.2634 50.7322 30.7322C50.2634 31.2011 50 31.837 50 32.5V47.5C50 48.163 49.7366 48.7989 49.2678 49.2678C48.7989 49.7366 48.163 50 47.5 50H12.5C11.837 50 11.2011 49.7366 10.7322 49.2678C10.2634 48.7989 10 48.163 10 47.5V12.5C10 11.837 10.2634 11.2011 10.7322 10.7322C11.2011 10.2634 11.837 10 12.5 10H27.5C28.163 10 28.7989 9.73661 29.2678 9.26777C29.7366 8.79893 30 8.16304 30 7.5C30 6.83696 29.7366 6.20107 29.2678 5.73223C28.7989 5.26339 28.163 5 27.5 5H12.5C10.5109 5 8.60322 5.79018 7.1967 7.1967C5.79018 8.60322 5 10.5109 5 12.5V47.5C5 49.4891 5.79018 51.3968 7.1967 52.8033C8.60322 54.2098 10.5109 55 12.5 55H47.5C49.4891 55 51.3968 54.2098 52.8033 52.8033C54.2098 51.3968 55 49.4891 55 47.5V32.5C55 31.837 54.7366 31.2011 54.2678 30.7322C53.7989 30.2634 53.163 30 52.5 30ZM15 31.9V42.5C15 43.163 15.2634 43.7989 15.7322 44.2678C16.2011 44.7366 16.837 45 17.5 45H28.1C28.429 45.0019 28.7552 44.9388 29.0598 44.8144C29.3644 44.69 29.6414 44.5067 29.875 44.275L47.175 26.95L54.275 20C54.5093 19.7676 54.6953 19.4911 54.8222 19.1864C54.9492 18.8818 55.0145 18.555 55.0145 18.225C55.0145 17.895 54.9492 17.5682 54.8222 17.2636C54.6953 16.9589 54.5093 16.6824 54.275 16.45L43.675 5.725C43.4426 5.49068 43.1661 5.30469 42.8614 5.17777C42.5568 5.05085 42.23 4.9855 41.9 4.9855C41.57 4.9855 41.2432 5.05085 40.9386 5.17777C40.6339 5.30469 40.3574 5.49068 40.125 5.725L33.075 12.8L15.725 30.125C15.4933 30.3586 15.31 30.6356 15.1856 30.9402C15.0612 31.2448 14.9981 31.571 15 31.9ZM41.9 11.025L48.975 18.1L45.425 21.65L38.35 14.575L41.9 11.025ZM20 32.925L34.825 18.1L41.9 25.175L27.075 40H20V32.925Z" fill="#C81D25"/>
</svg>
