<svg width="60" height="60" viewBox="0 0 60 60" fill="none" xmlns="http://www.w3.org/2000/svg">
<path fill-rule="evenodd" clip-rule="evenodd" d="M42.5 12.5V10C42.5 8.67392 41.9732 7.40215 41.0355 6.46447C40.0979 5.52678 38.8261 5 37.5 5H22.5C21.1739 5 19.9021 5.52678 18.9645 6.46447C18.0268 7.40215 17.5 8.67392 17.5 10V12.5H10C9.33696 12.5 8.70107 12.7634 8.23223 13.2322C7.76339 13.7011 7.5 14.337 7.5 15C7.5 15.663 7.76339 16.2989 8.23223 16.7678C8.70107 17.2366 9.33696 17.5 10 17.5H12.5V45C12.5 46.9891 13.2902 48.8968 14.6967 50.3033C16.1032 51.7098 18.0109 52.5 20 52.5H40C41.9891 52.5 43.8968 51.7098 45.3033 50.3033C46.7098 48.8968 47.5 46.9891 47.5 45V17.5H50C50.663 17.5 51.2989 17.2366 51.7678 16.7678C52.2366 16.2989 52.5 15.663 52.5 15C52.5 14.337 52.2366 13.7011 51.7678 13.2322C51.2989 12.7634 50.663 12.5 50 12.5H42.5ZM37.5 10H22.5V12.5H37.5V10ZM42.5 17.5H17.5V45C17.5 45.663 17.7634 46.2989 18.2322 46.7678C18.7011 47.2366 19.337 47.5 20 47.5H40C40.663 47.5 41.2989 47.2366 41.7678 46.7678C42.2366 46.2989 42.5 45.663 42.5 45V17.5Z" fill="#C81D25"/>
<path d="M22.5 22.5H27.5V42.5H22.5V22.5ZM32.5 22.5H37.5V42.5H32.5V22.5Z" fill="#C81D25"/>
</svg>
