<svg width="199" height="30" viewBox="0 0 199 30" fill="none" xmlns="http://www.w3.org/2000/svg">
<path d="M6.70312 0.5625V29H0.84375V0.5625H6.70312ZM18.0312 12.7109V17.2812H5.10156V12.7109H18.0312ZM19.3984 0.5625V5.15234H5.10156V0.5625H19.3984ZM25.4727 0.5625H30.4336L37.7383 21.4414L45.043 0.5625H50.0039L39.7305 29H35.7461L25.4727 0.5625ZM22.7969 0.5625H27.7383L28.6367 20.9141V29H22.7969V0.5625ZM47.7383 0.5625H52.6992V29H46.8398V20.9141L47.7383 0.5625ZM73.5391 0.5625H79.3789V19.3516C79.3789 21.5391 78.9102 23.3815 77.9727 24.8789C77.0482 26.3763 75.7656 27.5026 74.125 28.2578C72.4974 29.013 70.6224 29.3906 68.5 29.3906C66.3776 29.3906 64.4896 29.013 62.8359 28.2578C61.1953 27.5026 59.9062 26.3763 58.9688 24.8789C58.0443 23.3815 57.582 21.5391 57.582 19.3516V0.5625H63.4414V19.3516C63.4414 20.6276 63.6432 21.6693 64.0469 22.4766C64.4505 23.2839 65.0299 23.8763 65.7852 24.2539C66.5534 24.6315 67.4583 24.8203 68.5 24.8203C69.5677 24.8203 70.4727 24.6315 71.2148 24.2539C71.9701 23.8763 72.543 23.2839 72.9336 22.4766C73.3372 21.6693 73.5391 20.6276 73.5391 19.3516V0.5625Z" fill="#C81D25"/>
<path d="M119.457 0.5625L114.516 29H108.969L101.098 9.72266L97.7578 29H92.0352L96.957 0.5625H102.523L110.414 19.8594L113.754 0.5625H119.457ZM138.773 24.4297L137.973 29H123.266L124.047 24.4297H138.773ZM130.082 0.5625L125.141 29H119.418L124.34 0.5625H130.082ZM138.988 12.1445L138.207 16.5977H125.414L126.195 12.1445H138.988ZM142.875 0.5625L142.074 5.15234H127.387L128.207 0.5625H142.875ZM148.852 24.2148L157.973 0.5625H161.02L161.215 4.78125L151.605 29H148.285L148.852 24.2148ZM149.73 0.5625L150.551 24.7422L149.574 29H145.844L144.164 0.5625H149.73ZM162.953 24.1367L171.098 0.5625H176.879L166.312 29H162.621L162.953 24.1367ZM162.816 0.5625L164.633 24.8594L163.891 29H160.551L158.461 4.29297L159.691 0.5625H162.816ZM190.883 21.4219C191 20.7318 190.941 20.1523 190.707 19.6836C190.486 19.2018 190.147 18.7982 189.691 18.4727C189.249 18.1341 188.747 17.8477 188.188 17.6133C187.641 17.3789 187.094 17.1641 186.547 16.9688C185.544 16.5781 184.555 16.1354 183.578 15.6406C182.615 15.1458 181.736 14.5599 180.941 13.8828C180.147 13.1927 179.529 12.3919 179.086 11.4805C178.643 10.556 178.461 9.47526 178.539 8.23828C178.63 6.83203 179.027 5.61458 179.73 4.58594C180.434 3.55729 181.326 2.71745 182.406 2.06641C183.5 1.40234 184.685 0.914062 185.961 0.601562C187.25 0.289062 188.513 0.145833 189.75 0.171875C191.521 0.197917 193.096 0.56901 194.477 1.28516C195.857 1.98828 196.938 2.99089 197.719 4.29297C198.513 5.58203 198.884 7.13151 198.832 8.94141H193.168C193.22 8.08203 193.109 7.33984 192.836 6.71484C192.576 6.07682 192.152 5.58854 191.566 5.25C190.993 4.89844 190.258 4.70964 189.359 4.68359C188.591 4.67057 187.836 4.79427 187.094 5.05469C186.365 5.30208 185.733 5.69271 185.199 6.22656C184.678 6.7474 184.353 7.42448 184.223 8.25781C184.118 8.86979 184.203 9.39714 184.477 9.83984C184.763 10.2826 185.147 10.6602 185.629 10.9727C186.124 11.2852 186.645 11.5521 187.191 11.7734C187.751 11.9818 188.253 12.1706 188.695 12.3398C189.75 12.7174 190.766 13.1667 191.742 13.6875C192.732 14.2083 193.604 14.8268 194.359 15.543C195.115 16.2461 195.694 17.0794 196.098 18.043C196.501 18.9935 196.664 20.1003 196.586 21.3633C196.469 22.8086 196.078 24.0456 195.414 25.0742C194.75 26.0898 193.891 26.9232 192.836 27.5742C191.781 28.2122 190.629 28.681 189.379 28.9805C188.129 29.2799 186.859 29.4232 185.57 29.4102C184.164 29.3841 182.842 29.1628 181.605 28.7461C180.368 28.3294 179.288 27.7305 178.363 26.9492C177.439 26.1549 176.723 25.1849 176.215 24.0391C175.72 22.8802 175.492 21.5586 175.531 20.0742L181.254 20.0938C181.202 20.888 181.26 21.5846 181.43 22.1836C181.612 22.7695 181.898 23.2643 182.289 23.668C182.693 24.0716 183.188 24.3776 183.773 24.5859C184.372 24.7812 185.069 24.8854 185.863 24.8984C186.632 24.8984 187.374 24.7812 188.09 24.5469C188.806 24.3125 189.418 23.9414 189.926 23.4336C190.434 22.9128 190.753 22.2422 190.883 21.4219Z" fill="#0B3954"/>
</svg>
